<svg width="449" height="414" viewBox="0 0 449 414" fill="none" xmlns="http://www.w3.org/2000/svg">
<g filter="url(#filter0_d)">
<path fill-rule="evenodd" clip-rule="evenodd" d="M272.982 -38.8454C247.886 -83.9366 231.861 -112.729 187.38 -148.738C110.122 -211.28 24.3629 -110.231 -43.5305 -23.5997C-165.136 131.568 -133.081 261.89 60.3894 321.021C215.511 368.432 307.653 350.147 352.947 303.071C358.996 306.59 363.818 311.323 364.369 317.398L365.471 329.548C365.928 334.582 364.274 339.512 361.965 344.011C360.657 346.562 359.59 349.277 358.801 352.136C352.491 375.002 366.331 398.433 389.713 404.471C413.095 410.509 437.165 396.867 443.475 374.001C449.784 351.136 435.944 327.705 412.562 321.667C410.304 321.084 408.039 320.684 405.784 320.459C390.199 318.901 367.677 309.585 366.262 293.984C365.944 290.482 366.76 287.046 368.015 283.746C403.868 226.352 388.772 141.558 342.298 74.1361C308.879 25.6523 289.067 -9.94438 272.982 -38.8454Z" fill="white"/>
</g>
<defs>
<filter id="filter0_d" x="-119.235" y="-168.162" width="568.235" height="582.062" filterUnits="userSpaceOnUse" color-interpolation-filters="sRGB">
<feFlood flood-opacity="0" result="BackgroundImageFix"/>
<feColorMatrix in="SourceAlpha" type="matrix" values="0 0 0 0 0 0 0 0 0 0 0 0 0 0 0 0 0 0 127 0"/>
<feOffset dy="4"/>
<feGaussianBlur stdDeviation="2"/>
<feColorMatrix type="matrix" values="0 0 0 0 0 0 0 0 0 0 0 0 0 0 0 0 0 0 0.25 0"/>
<feBlend mode="normal" in2="BackgroundImageFix" result="effect1_dropShadow"/>
<feBlend mode="normal" in="SourceGraphic" in2="effect1_dropShadow" result="shape"/>
</filter>
</defs>
</svg>
