<svg width="487" height="248" viewBox="0 0 487 248" fill="none" xmlns="http://www.w3.org/2000/svg">
<path fill-rule="evenodd" clip-rule="evenodd" d="M97.0672 142.168C70.5919 108.527 74.7763 60.2569 106.413 34.3532C138.05 8.44954 185.16 14.7215 211.635 48.362C225.608 66.117 231.041 87.9472 228.405 108.414C227.63 114.432 230.069 120.609 235.322 123.648C245.15 129.335 257.874 120.837 258.757 109.517C261.189 78.3081 276.002 47.8635 302.202 26.4119C351.797 -14.1958 423.415 -7.2002 462.165 42.037C500.915 91.2742 492.123 164.108 442.528 204.716C392.932 245.323 321.314 238.328 282.564 189.09C273.573 177.666 267.141 164.971 263.185 151.703C261.572 146.294 258.2 141.507 253.315 138.681L246.62 134.807C235.613 128.438 221.57 134.105 213.854 144.213C210.532 148.565 206.674 152.586 202.289 156.176C175.344 178.238 137.176 176.961 110.091 155.314C105.326 151.505 98.3543 151.299 93.995 155.566C89.7402 159.732 89.7355 166.494 92.8165 171.59C97.376 179.13 100 187.971 100 197.425C100 225.04 77.6142 247.425 50 247.425C22.3858 247.425 0 225.04 0 197.425C0 169.811 22.3858 147.425 50 147.425C59.9739 147.425 69.2658 150.346 77.0671 155.378C82.2084 158.695 89.1724 158.888 93.5443 154.608L96.6417 151.576C99.206 149.066 99.2865 144.987 97.0672 142.168Z" fill="#FCFCFC"/>
</svg>
