<svg width="342" height="247" viewBox="0 0 342 247" fill="none" xmlns="http://www.w3.org/2000/svg">
<g filter="url(#filter0_d)">
<path fill-rule="evenodd" clip-rule="evenodd" d="M160.697 294.392C172.24 294.392 188.577 285.48 199.248 289.879C216.116 296.832 233.769 301.713 258 306.572C329.458 320.901 353.999 237.587 371.295 167.768C402.276 42.7141 337.298 -16.7633 189.679 4.0944C-69.994 40.7847 -8.88727 161.847 83.3939 221.113C91.8301 226.53 99.6236 231.563 106.875 236.246L106.876 236.246C118.491 243.746 128.716 250.349 137.967 256.201C144.262 260.183 144.191 270.751 144.191 278.2C144.191 281.022 144.927 283.675 146.221 285.985C146.848 287.105 147.003 288.463 146.439 289.616C145.525 291.484 143.158 292.058 141.147 291.528C140.218 291.283 139.25 291.153 138.254 291.153C131.323 291.153 125.705 297.428 125.705 305.168C125.705 306.043 125.224 306.866 124.417 307.204L118.646 309.618C116.202 310.64 113.475 310.394 110.759 310.15H110.759C109.569 310.042 108.381 309.935 107.219 309.935C102.114 309.935 97.9762 314.285 97.9762 319.65C97.9762 325.016 102.114 329.365 107.219 329.365C112.324 329.365 116.462 325.016 116.462 319.65C116.462 316.747 117.413 313.385 120.091 312.265L120.821 311.96C123.782 310.721 127.112 312.446 129.206 314.879C131.489 317.531 134.699 319.182 138.254 319.182C145.184 319.182 150.802 312.908 150.802 305.168C150.802 302.839 150.293 300.644 149.394 298.711C148.865 297.576 148.754 296.259 149.304 295.134C150.265 293.171 152.758 292.562 154.805 293.329C156.635 294.016 158.621 294.392 160.697 294.392Z" fill="white"/>
</g>
<defs>
<filter id="filter0_d" x="0" y="0" width="382.854" height="337.365" filterUnits="userSpaceOnUse" color-interpolation-filters="sRGB">
<feFlood flood-opacity="0" result="BackgroundImageFix"/>
<feColorMatrix in="SourceAlpha" type="matrix" values="0 0 0 0 0 0 0 0 0 0 0 0 0 0 0 0 0 0 127 0"/>
<feOffset dy="4"/>
<feGaussianBlur stdDeviation="2"/>
<feColorMatrix type="matrix" values="0 0 0 0 0 0 0 0 0 0 0 0 0 0 0 0 0 0 0.25 0"/>
<feBlend mode="normal" in2="BackgroundImageFix" result="effect1_dropShadow"/>
<feBlend mode="normal" in="SourceGraphic" in2="effect1_dropShadow" result="shape"/>
</filter>
</defs>
</svg>
